<svg id="visual" viewBox="0 0 900 600" width="900" height="600" xmlns="http://www.w3.org/2000/svg" xmlns:xlink="http://www.w3.org/1999/xlink" version="1.1"><rect x="0" y="0" width="900" height="600" fill="#ffffff"></rect><path d="M628 600L617.8 585.7C607.7 571.3 587.3 542.7 585.3 514.2C583.3 485.7 599.7 457.3 611.8 428.8C624 400.3 632 371.7 617.8 343C603.7 314.3 567.3 285.7 540.8 257C514.3 228.3 497.7 199.7 486.8 171.2C476 142.7 471 114.3 467.5 85.8C464 57.3 462 28.7 461 14.3L460 0L900 0L900 14.3C900 28.7 900 57.3 900 85.8C900 114.3 900 142.7 900 171.2C900 199.7 900 228.3 900 257C900 285.7 900 314.3 900 343C900 371.7 900 400.3 900 428.8C900 457.3 900 485.7 900 514.2C900 542.7 900 571.3 900 585.7L900 600Z" fill="#ff62a1"></path><path d="M563 600L562.7 585.7C562.3 571.3 561.7 542.7 586.5 514.2C611.3 485.7 661.7 457.3 673 428.8C684.3 400.3 656.7 371.7 649.7 343C642.7 314.3 656.3 285.7 641.3 257C626.3 228.3 582.7 199.7 582.5 171.2C582.3 142.7 625.7 114.3 635.3 85.8C645 57.3 621 28.7 609 14.3L597 0L900 0L900 14.3C900 28.7 900 57.3 900 85.8C900 114.3 900 142.7 900 171.2C900 199.7 900 228.3 900 257C900 285.7 900 314.3 900 343C900 371.7 900 400.3 900 428.8C900 457.3 900 485.7 900 514.2C900 542.7 900 571.3 900 585.7L900 600Z" fill="#e16acc"></path><path d="M705 600L690.7 585.7C676.3 571.3 647.7 542.7 644.3 514.2C641 485.7 663 457.3 689.5 428.8C716 400.3 747 371.7 739.7 343C732.3 314.3 686.7 285.7 682.5 257C678.3 228.3 715.7 199.7 718.8 171.2C722 142.7 691 114.3 682.5 85.8C674 57.3 688 28.7 695 14.3L702 0L900 0L900 14.3C900 28.7 900 57.3 900 85.8C900 114.3 900 142.7 900 171.2C900 199.7 900 228.3 900 257C900 285.7 900 314.3 900 343C900 371.7 900 400.3 900 428.8C900 457.3 900 485.7 900 514.2C900 542.7 900 571.3 900 585.7L900 600Z" fill="#a87bed"></path><path d="M757 600L770.3 585.7C783.7 571.3 810.3 542.7 820.8 514.2C831.3 485.7 825.7 457.3 808.2 428.8C790.7 400.3 761.3 371.7 743.7 343C726 314.3 720 285.7 716.8 257C713.7 228.3 713.3 199.7 721.8 171.2C730.3 142.7 747.7 114.3 758.5 85.8C769.3 57.3 773.7 28.7 775.8 14.3L778 0L900 0L900 14.3C900 28.7 900 57.3 900 85.8C900 114.3 900 142.7 900 171.2C900 199.7 900 228.3 900 257C900 285.7 900 314.3 900 343C900 371.7 900 400.3 900 428.8C900 457.3 900 485.7 900 514.2C900 542.7 900 571.3 900 585.7L900 600Z" fill="#3e8bff"></path></svg>