<svg id="visual" viewBox="0 0 900 600" width="900" height="600" xmlns="http://www.w3.org/2000/svg" xmlns:xlink="http://www.w3.org/1999/xlink" version="1.1"><rect x="0" y="0" width="900" height="600" fill="#ffffff"></rect><path d="M503 600L505.5 585.7C508 571.3 513 542.7 537.7 514.2C562.3 485.7 606.7 457.3 615 428.8C623.3 400.3 595.7 371.7 574.3 343C553 314.3 538 285.7 539 257C540 228.3 557 199.7 553 171.2C549 142.7 524 114.3 512.7 85.8C501.3 57.3 503.7 28.7 504.8 14.3L506 0L900 0L900 14.3C900 28.7 900 57.3 900 85.8C900 114.3 900 142.7 900 171.2C900 199.7 900 228.3 900 257C900 285.7 900 314.3 900 343C900 371.7 900 400.3 900 428.8C900 457.3 900 485.7 900 514.2C900 542.7 900 571.3 900 585.7L900 600Z" fill="#ffebf3"></path><path d="M710 600L705.8 585.7C701.7 571.3 693.3 542.7 682.3 514.2C671.3 485.7 657.7 457.3 640.5 428.8C623.3 400.3 602.7 371.7 602.7 343C602.7 314.3 623.3 285.7 643.5 257C663.7 228.3 683.3 199.7 679.8 171.2C676.3 142.7 649.7 114.3 641.2 85.8C632.7 57.3 642.3 28.7 647.2 14.3L652 0L900 0L900 14.3C900 28.7 900 57.3 900 85.8C900 114.3 900 142.7 900 171.2C900 199.7 900 228.3 900 257C900 285.7 900 314.3 900 343C900 371.7 900 400.3 900 428.8C900 457.3 900 485.7 900 514.2C900 542.7 900 571.3 900 585.7L900 600Z" fill="#fde1f1"></path><path d="M651 600L661.3 585.7C671.7 571.3 692.3 542.7 705.7 514.2C719 485.7 725 457.3 712.5 428.8C700 400.3 669 371.7 647.2 343C625.3 314.3 612.7 285.7 625.8 257C639 228.3 678 199.7 683.5 171.2C689 142.7 661 114.3 658.5 85.8C656 57.3 679 28.7 690.5 14.3L702 0L900 0L900 14.3C900 28.7 900 57.3 900 85.8C900 114.3 900 142.7 900 171.2C900 199.7 900 228.3 900 257C900 285.7 900 314.3 900 343C900 371.7 900 400.3 900 428.8C900 457.3 900 485.7 900 514.2C900 542.7 900 571.3 900 585.7L900 600Z" fill="#f8d7f2"></path><path d="M780 600L774.2 585.7C768.3 571.3 756.7 542.7 742.3 514.2C728 485.7 711 457.3 711.7 428.8C712.3 400.3 730.7 371.7 728.5 343C726.3 314.3 703.7 285.7 699 257C694.3 228.3 707.7 199.7 718.5 171.2C729.3 142.7 737.7 114.3 741.2 85.8C744.7 57.3 743.3 28.7 742.7 14.3L742 0L900 0L900 14.3C900 28.7 900 57.3 900 85.8C900 114.3 900 142.7 900 171.2C900 199.7 900 228.3 900 257C900 285.7 900 314.3 900 343C900 371.7 900 400.3 900 428.8C900 457.3 900 485.7 900 514.2C900 542.7 900 571.3 900 585.7L900 600Z" fill="#efcff5"></path><path d="M823 600L813.7 585.7C804.3 571.3 785.7 542.7 774.7 514.2C763.7 485.7 760.3 457.3 754.3 428.8C748.3 400.3 739.7 371.7 738.8 343C738 314.3 745 285.7 748.3 257C751.7 228.3 751.3 199.7 763.2 171.2C775 142.7 799 114.3 807.3 85.8C815.7 57.3 808.3 28.7 804.7 14.3L801 0L900 0L900 14.3C900 28.7 900 57.3 900 85.8C900 114.3 900 142.7 900 171.2C900 199.7 900 228.3 900 257C900 285.7 900 314.3 900 343C900 371.7 900 400.3 900 428.8C900 457.3 900 485.7 900 514.2C900 542.7 900 571.3 900 585.7L900 600Z" fill="#e3c8f9"></path><path d="M836 600L834.2 585.7C832.3 571.3 828.7 542.7 825 514.2C821.3 485.7 817.7 457.3 816 428.8C814.3 400.3 814.7 371.7 815.3 343C816 314.3 817 285.7 820.8 257C824.7 228.3 831.3 199.7 832.8 171.2C834.3 142.7 830.7 114.3 825.8 85.8C821 57.3 815 28.7 812 14.3L809 0L900 0L900 14.3C900 28.7 900 57.3 900 85.8C900 114.3 900 142.7 900 171.2C900 199.7 900 228.3 900 257C900 285.7 900 314.3 900 343C900 371.7 900 400.3 900 428.8C900 457.3 900 485.7 900 514.2C900 542.7 900 571.3 900 585.7L900 600Z" fill="#d1c2ff"></path></svg>