<svg id="visual" viewBox="0 0 900 600" width="900" height="600" xmlns="http://www.w3.org/2000/svg" xmlns:xlink="http://www.w3.org/1999/xlink" version="1.1"><rect x="0" y="0" width="900" height="600" fill="#ffffff"></rect><path d="M694 600L694.8 585.7C695.7 571.3 697.3 542.7 681.3 514.2C665.3 485.7 631.7 457.3 632.8 428.8C634 400.3 670 371.7 673.8 343C677.7 314.3 649.3 285.7 642.2 257C635 228.3 649 199.7 642.8 171.2C636.7 142.7 610.3 114.3 607.7 85.8C605 57.3 626 28.7 636.5 14.3L647 0L900 0L900 14.3C900 28.7 900 57.3 900 85.8C900 114.3 900 142.7 900 171.2C900 199.7 900 228.3 900 257C900 285.7 900 314.3 900 343C900 371.7 900 400.3 900 428.8C900 457.3 900 485.7 900 514.2C900 542.7 900 571.3 900 585.7L900 600Z" fill="#ff62a1"></path><path d="M666 600L680.3 585.7C694.7 571.3 723.3 542.7 725.3 514.2C727.3 485.7 702.7 457.3 683.2 428.8C663.7 400.3 649.3 371.7 662.2 343C675 314.3 715 285.7 732.3 257C749.7 228.3 744.3 199.7 741.8 171.2C739.3 142.7 739.7 114.3 738.5 85.8C737.3 57.3 734.7 28.7 733.3 14.3L732 0L900 0L900 14.3C900 28.7 900 57.3 900 85.8C900 114.3 900 142.7 900 171.2C900 199.7 900 228.3 900 257C900 285.7 900 314.3 900 343C900 371.7 900 400.3 900 428.8C900 457.3 900 485.7 900 514.2C900 542.7 900 571.3 900 585.7L900 600Z" fill="#e16acc"></path><path d="M767 600L765.2 585.7C763.3 571.3 759.7 542.7 754 514.2C748.3 485.7 740.7 457.3 743 428.8C745.3 400.3 757.7 371.7 766.2 343C774.7 314.3 779.3 285.7 775.5 257C771.7 228.3 759.3 199.7 757.7 171.2C756 142.7 765 114.3 765.2 85.8C765.3 57.3 756.7 28.7 752.3 14.3L748 0L900 0L900 14.3C900 28.7 900 57.3 900 85.8C900 114.3 900 142.7 900 171.2C900 199.7 900 228.3 900 257C900 285.7 900 314.3 900 343C900 371.7 900 400.3 900 428.8C900 457.3 900 485.7 900 514.2C900 542.7 900 571.3 900 585.7L900 600Z" fill="#a87bed"></path><path d="M797 600L795 585.7C793 571.3 789 542.7 794.2 514.2C799.3 485.7 813.7 457.3 816.8 428.8C820 400.3 812 371.7 816 343C820 314.3 836 285.7 831.7 257C827.3 228.3 802.7 199.7 800.5 171.2C798.3 142.7 818.7 114.3 826.3 85.8C834 57.3 829 28.7 826.5 14.3L824 0L900 0L900 14.3C900 28.7 900 57.3 900 85.8C900 114.3 900 142.7 900 171.2C900 199.7 900 228.3 900 257C900 285.7 900 314.3 900 343C900 371.7 900 400.3 900 428.8C900 457.3 900 485.7 900 514.2C900 542.7 900 571.3 900 585.7L900 600Z" fill="#3e8bff"></path></svg>