<svg id="visual" viewBox="0 0 900 600" width="900" height="600" xmlns="http://www.w3.org/2000/svg" xmlns:xlink="http://www.w3.org/1999/xlink" version="1.1"><path d="M0 145L12.5 147C25 149 50 153 75 158C100 163 125 169 150 170C175 171 200 167 225 162C250 157 275 151 300 155C325 159 350 173 375 178C400 183 425 179 450 168C475 157 500 139 525 127C550 115 575 109 600 113C625 117 650 131 675 134C700 137 725 129 750 125C775 121 800 121 825 134C850 147 875 173 887.5 186L900 199L900 0L887.5 0C875 0 850 0 825 0C800 0 775 0 750 0C725 0 700 0 675 0C650 0 625 0 600 0C575 0 550 0 525 0C500 0 475 0 450 0C425 0 400 0 375 0C350 0 325 0 300 0C275 0 250 0 225 0C200 0 175 0 150 0C125 0 100 0 75 0C50 0 25 0 12.5 0L0 0Z" fill="#f6635c"></path><path d="M0 355L12.5 345C25 335 50 315 75 309C100 303 125 311 150 321C175 331 200 343 225 338C250 333 275 311 300 311C325 311 350 333 375 337C400 341 425 327 450 324C475 321 500 329 525 330C550 331 575 325 600 323C625 321 650 323 675 317C700 311 725 297 750 302C775 307 800 331 825 338C850 345 875 335 887.5 330L900 325L900 197L887.5 184C875 171 850 145 825 132C800 119 775 119 750 123C725 127 700 135 675 132C650 129 625 115 600 111C575 107 550 113 525 125C500 137 475 155 450 166C425 177 400 181 375 176C350 171 325 157 300 153C275 149 250 155 225 160C200 165 175 169 150 168C125 167 100 161 75 156C50 151 25 147 12.5 145L0 143Z" fill="#e14e5f"></path><path d="M0 457L12.5 446C25 435 50 413 75 402C100 391 125 391 150 395C175 399 200 407 225 403C250 399 275 383 300 387C325 391 350 415 375 416C400 417 425 395 450 390C475 385 500 397 525 406C550 415 575 421 600 418C625 415 650 403 675 396C700 389 725 387 750 397C775 407 800 429 825 436C850 443 875 435 887.5 431L900 427L900 323L887.5 328C875 333 850 343 825 336C800 329 775 305 750 300C725 295 700 309 675 315C650 321 625 319 600 321C575 323 550 329 525 328C500 327 475 319 450 322C425 325 400 339 375 335C350 331 325 309 300 309C275 309 250 331 225 336C200 341 175 329 150 319C125 309 100 301 75 307C50 313 25 333 12.5 343L0 353Z" fill="#ca3b61"></path><path d="M0 499L12.5 490C25 481 50 463 75 452C100 441 125 437 150 439C175 441 200 449 225 445C250 441 275 425 300 428C325 431 350 453 375 457C400 461 425 447 450 443C475 439 500 445 525 456C550 467 575 483 600 483C625 483 650 467 675 456C700 445 725 439 750 445C775 451 800 469 825 474C850 479 875 471 887.5 467L900 463L900 425L887.5 429C875 433 850 441 825 434C800 427 775 405 750 395C725 385 700 387 675 394C650 401 625 413 600 416C575 419 550 413 525 404C500 395 475 383 450 388C425 393 400 415 375 414C350 413 325 389 300 385C275 381 250 397 225 401C200 405 175 397 150 393C125 389 100 389 75 400C50 411 25 433 12.5 444L0 455Z" fill="#b02b61"></path><path d="M0 535L12.5 527C25 519 50 503 75 492C100 481 125 475 150 479C175 483 200 497 225 499C250 501 275 491 300 495C325 499 350 517 375 522C400 527 425 519 450 516C475 513 500 515 525 519C550 523 575 529 600 529C625 529 650 523 675 518C700 513 725 509 750 512C775 515 800 525 825 527C850 529 875 523 887.5 520L900 517L900 461L887.5 465C875 469 850 477 825 472C800 467 775 449 750 443C725 437 700 443 675 454C650 465 625 481 600 481C575 481 550 465 525 454C500 443 475 437 450 441C425 445 400 459 375 455C350 451 325 429 300 426C275 423 250 439 225 443C200 447 175 439 150 437C125 435 100 439 75 450C50 461 25 479 12.5 488L0 497Z" fill="#951f5f"></path><path d="M0 601L12.5 601C25 601 50 601 75 601C100 601 125 601 150 601C175 601 200 601 225 601C250 601 275 601 300 601C325 601 350 601 375 601C400 601 425 601 450 601C475 601 500 601 525 601C550 601 575 601 600 601C625 601 650 601 675 601C700 601 725 601 750 601C775 601 800 601 825 601C850 601 875 601 887.5 601L900 601L900 515L887.5 518C875 521 850 527 825 525C800 523 775 513 750 510C725 507 700 511 675 516C650 521 625 527 600 527C575 527 550 521 525 517C500 513 475 511 450 514C425 517 400 525 375 520C350 515 325 497 300 493C275 489 250 499 225 497C200 495 175 481 150 477C125 473 100 479 75 490C50 501 25 517 12.5 525L0 533Z" fill="#79155b"></path></svg>