<svg id="visual" viewBox="0 0 900 600" width="900" height="600" xmlns="http://www.w3.org/2000/svg" xmlns:xlink="http://www.w3.org/1999/xlink" version="1.1"><path d="M551 600L539.8 585.7C528.7 571.3 506.3 542.7 498 514.2C489.7 485.7 495.3 457.3 485 428.8C474.7 400.3 448.3 371.7 456.8 343C465.3 314.3 508.7 285.7 512.2 257C515.7 228.3 479.3 199.7 472.2 171.2C465 142.7 487 114.3 506.5 85.8C526 57.3 543 28.7 551.5 14.3L560 0L900 0L900 14.3C900 28.7 900 57.3 900 85.8C900 114.3 900 142.7 900 171.2C900 199.7 900 228.3 900 257C900 285.7 900 314.3 900 343C900 371.7 900 400.3 900 428.8C900 457.3 900 485.7 900 514.2C900 542.7 900 571.3 900 585.7L900 600Z" fill="#beb9da"></path><path d="M558 600L569.5 585.7C581 571.3 604 542.7 600.5 514.2C597 485.7 567 457.3 558.8 428.8C550.7 400.3 564.3 371.7 572.2 343C580 314.3 582 285.7 588.8 257C595.7 228.3 607.3 199.7 592.7 171.2C578 142.7 537 114.3 531.8 85.8C526.7 57.3 557.3 28.7 572.7 14.3L588 0L900 0L900 14.3C900 28.7 900 57.3 900 85.8C900 114.3 900 142.7 900 171.2C900 199.7 900 228.3 900 257C900 285.7 900 314.3 900 343C900 371.7 900 400.3 900 428.8C900 457.3 900 485.7 900 514.2C900 542.7 900 571.3 900 585.7L900 600Z" fill="#d6c2dc"></path><path d="M607 600L611.7 585.7C616.3 571.3 625.7 542.7 621.2 514.2C616.7 485.7 598.3 457.3 590.2 428.8C582 400.3 584 371.7 601.5 343C619 314.3 652 285.7 663.7 257C675.3 228.3 665.7 199.7 658.7 171.2C651.7 142.7 647.3 114.3 647.7 85.8C648 57.3 653 28.7 655.5 14.3L658 0L900 0L900 14.3C900 28.7 900 57.3 900 85.8C900 114.3 900 142.7 900 171.2C900 199.7 900 228.3 900 257C900 285.7 900 314.3 900 343C900 371.7 900 400.3 900 428.8C900 457.3 900 485.7 900 514.2C900 542.7 900 571.3 900 585.7L900 600Z" fill="#e8ccdd"></path><path d="M754 600L754.7 585.7C755.3 571.3 756.7 542.7 749.2 514.2C741.7 485.7 725.3 457.3 717.2 428.8C709 400.3 709 371.7 702.8 343C696.7 314.3 684.3 285.7 678.5 257C672.7 228.3 673.3 199.7 689.7 171.2C706 142.7 738 114.3 741.7 85.8C745.3 57.3 720.7 28.7 708.3 14.3L696 0L900 0L900 14.3C900 28.7 900 57.3 900 85.8C900 114.3 900 142.7 900 171.2C900 199.7 900 228.3 900 257C900 285.7 900 314.3 900 343C900 371.7 900 400.3 900 428.8C900 457.3 900 485.7 900 514.2C900 542.7 900 571.3 900 585.7L900 600Z" fill="#f5d8e0"></path><path d="M797 600L798.3 585.7C799.7 571.3 802.3 542.7 807.2 514.2C812 485.7 819 457.3 820.7 428.8C822.3 400.3 818.7 371.7 809.8 343C801 314.3 787 285.7 778.8 257C770.7 228.3 768.3 199.7 777.8 171.2C787.3 142.7 808.7 114.3 813.3 85.8C818 57.3 806 28.7 800 14.3L794 0L900 0L900 14.3C900 28.7 900 57.3 900 85.8C900 114.3 900 142.7 900 171.2C900 199.7 900 228.3 900 257C900 285.7 900 314.3 900 343C900 371.7 900 400.3 900 428.8C900 457.3 900 485.7 900 514.2C900 542.7 900 571.3 900 585.7L900 600Z" fill="#ffe6e6"></path></svg>