<svg id="visual" viewBox="0 0 900 600" width="900" height="600" xmlns="http://www.w3.org/2000/svg" xmlns:xlink="http://www.w3.org/1999/xlink" version="1.1"><path d="M442 600L438 585.7C434 571.3 426 542.7 434.3 514.2C442.7 485.7 467.3 457.3 481 428.8C494.7 400.3 497.3 371.7 486.3 343C475.3 314.3 450.7 285.7 449.5 257C448.3 228.3 470.7 199.7 488 171.2C505.3 142.7 517.7 114.3 509 85.8C500.3 57.3 470.7 28.7 455.8 14.3L441 0L900 0L900 14.3C900 28.7 900 57.3 900 85.8C900 114.3 900 142.7 900 171.2C900 199.7 900 228.3 900 257C900 285.7 900 314.3 900 343C900 371.7 900 400.3 900 428.8C900 457.3 900 485.7 900 514.2C900 542.7 900 571.3 900 585.7L900 600Z" fill="#99b8c9"></path><path d="M588 600L588.5 585.7C589 571.3 590 542.7 590.2 514.2C590.3 485.7 589.7 457.3 591 428.8C592.3 400.3 595.7 371.7 584.7 343C573.7 314.3 548.3 285.7 541.8 257C535.3 228.3 547.7 199.7 565.8 171.2C584 142.7 608 114.3 595.8 85.8C583.7 57.3 535.3 28.7 511.2 14.3L487 0L900 0L900 14.3C900 28.7 900 57.3 900 85.8C900 114.3 900 142.7 900 171.2C900 199.7 900 228.3 900 257C900 285.7 900 314.3 900 343C900 371.7 900 400.3 900 428.8C900 457.3 900 485.7 900 514.2C900 542.7 900 571.3 900 585.7L900 600Z" fill="#adc7d6"></path><path d="M640 600L635.5 585.7C631 571.3 622 542.7 628.8 514.2C635.7 485.7 658.3 457.3 654.5 428.8C650.7 400.3 620.3 371.7 621 343C621.7 314.3 653.3 285.7 652.5 257C651.7 228.3 618.3 199.7 604.5 171.2C590.7 142.7 596.3 114.3 606.7 85.8C617 57.3 632 28.7 639.5 14.3L647 0L900 0L900 14.3C900 28.7 900 57.3 900 85.8C900 114.3 900 142.7 900 171.2C900 199.7 900 228.3 900 257C900 285.7 900 314.3 900 343C900 371.7 900 400.3 900 428.8C900 457.3 900 485.7 900 514.2C900 542.7 900 571.3 900 585.7L900 600Z" fill="#c1d7e4"></path><path d="M701 600L697.2 585.7C693.3 571.3 685.7 542.7 679.8 514.2C674 485.7 670 457.3 673.7 428.8C677.3 400.3 688.7 371.7 697.3 343C706 314.3 712 285.7 710.8 257C709.7 228.3 701.3 199.7 694.5 171.2C687.7 142.7 682.3 114.3 685.3 85.8C688.3 57.3 699.7 28.7 705.3 14.3L711 0L900 0L900 14.3C900 28.7 900 57.3 900 85.8C900 114.3 900 142.7 900 171.2C900 199.7 900 228.3 900 257C900 285.7 900 314.3 900 343C900 371.7 900 400.3 900 428.8C900 457.3 900 485.7 900 514.2C900 542.7 900 571.3 900 585.7L900 600Z" fill="#d5e7f1"></path><path d="M835 600L834.2 585.7C833.3 571.3 831.7 542.7 820 514.2C808.3 485.7 786.7 457.3 781.3 428.8C776 400.3 787 371.7 792 343C797 314.3 796 285.7 795.3 257C794.7 228.3 794.3 199.7 795 171.2C795.7 142.7 797.3 114.3 799 85.8C800.7 57.3 802.3 28.7 803.2 14.3L804 0L900 0L900 14.3C900 28.7 900 57.3 900 85.8C900 114.3 900 142.7 900 171.2C900 199.7 900 228.3 900 257C900 285.7 900 314.3 900 343C900 371.7 900 400.3 900 428.8C900 457.3 900 485.7 900 514.2C900 542.7 900 571.3 900 585.7L900 600Z" fill="#e9f7ff"></path></svg>