<svg id="visual" viewBox="0 0 900 600" width="900" height="600" xmlns="http://www.w3.org/2000/svg" xmlns:xlink="http://www.w3.org/1999/xlink" version="1.1"><path d="M452 600L455.7 585.7C459.3 571.3 466.7 542.7 459.5 514.2C452.3 485.7 430.7 457.3 430.8 428.8C431 400.3 453 371.7 477.8 343C502.7 314.3 530.3 285.7 528.8 257C527.3 228.3 496.7 199.7 486.2 171.2C475.7 142.7 485.3 114.3 487 85.8C488.7 57.3 482.3 28.7 479.2 14.3L476 0L900 0L900 14.3C900 28.7 900 57.3 900 85.8C900 114.3 900 142.7 900 171.2C900 199.7 900 228.3 900 257C900 285.7 900 314.3 900 343C900 371.7 900 400.3 900 428.8C900 457.3 900 485.7 900 514.2C900 542.7 900 571.3 900 585.7L900 600Z" fill="#a5bca5"></path><path d="M628 600L623.5 585.7C619 571.3 610 542.7 593.8 514.2C577.7 485.7 554.3 457.3 536.3 428.8C518.3 400.3 505.7 371.7 504.5 343C503.3 314.3 513.7 285.7 514.2 257C514.7 228.3 505.3 199.7 521.2 171.2C537 142.7 578 114.3 595.3 85.8C612.7 57.3 606.3 28.7 603.2 14.3L600 0L900 0L900 14.3C900 28.7 900 57.3 900 85.8C900 114.3 900 142.7 900 171.2C900 199.7 900 228.3 900 257C900 285.7 900 314.3 900 343C900 371.7 900 400.3 900 428.8C900 457.3 900 485.7 900 514.2C900 542.7 900 571.3 900 585.7L900 600Z" fill="#b7c8b5"></path><path d="M598 600L612.8 585.7C627.7 571.3 657.3 542.7 666.7 514.2C676 485.7 665 457.3 653.5 428.8C642 400.3 630 371.7 624.7 343C619.3 314.3 620.7 285.7 624.5 257C628.3 228.3 634.7 199.7 647.7 171.2C660.7 142.7 680.3 114.3 685.5 85.8C690.7 57.3 681.3 28.7 676.7 14.3L672 0L900 0L900 14.3C900 28.7 900 57.3 900 85.8C900 114.3 900 142.7 900 171.2C900 199.7 900 228.3 900 257C900 285.7 900 314.3 900 343C900 371.7 900 400.3 900 428.8C900 457.3 900 485.7 900 514.2C900 542.7 900 571.3 900 585.7L900 600Z" fill="#c8d5c5"></path><path d="M716 600L724.3 585.7C732.7 571.3 749.3 542.7 750.8 514.2C752.3 485.7 738.7 457.3 724.7 428.8C710.7 400.3 696.3 371.7 693.8 343C691.3 314.3 700.7 285.7 706.7 257C712.7 228.3 715.3 199.7 710.8 171.2C706.3 142.7 694.7 114.3 694.3 85.8C694 57.3 705 28.7 710.5 14.3L716 0L900 0L900 14.3C900 28.7 900 57.3 900 85.8C900 114.3 900 142.7 900 171.2C900 199.7 900 228.3 900 257C900 285.7 900 314.3 900 343C900 371.7 900 400.3 900 428.8C900 457.3 900 485.7 900 514.2C900 542.7 900 571.3 900 585.7L900 600Z" fill="#d9e2d6"></path><path d="M813 600L814.3 585.7C815.7 571.3 818.3 542.7 818.2 514.2C818 485.7 815 457.3 817.2 428.8C819.3 400.3 826.7 371.7 818.8 343C811 314.3 788 285.7 785.7 257C783.3 228.3 801.7 199.7 802 171.2C802.3 142.7 784.7 114.3 779 85.8C773.3 57.3 779.7 28.7 782.8 14.3L786 0L900 0L900 14.3C900 28.7 900 57.3 900 85.8C900 114.3 900 142.7 900 171.2C900 199.7 900 228.3 900 257C900 285.7 900 314.3 900 343C900 371.7 900 400.3 900 428.8C900 457.3 900 485.7 900 514.2C900 542.7 900 571.3 900 585.7L900 600Z" fill="#eaefe8"></path></svg>