<svg id="visual" viewBox="0 0 900 600" width="900" height="600" xmlns="http://www.w3.org/2000/svg" xmlns:xlink="http://www.w3.org/1999/xlink" version="1.1"><path d="M519 600L501 585.7C483 571.3 447 542.7 439.8 514.2C432.7 485.7 454.3 457.3 465.3 428.8C476.3 400.3 476.7 371.7 471.7 343C466.7 314.3 456.3 285.7 466.8 257C477.3 228.3 508.7 199.7 515.2 171.2C521.7 142.7 503.3 114.3 487.2 85.8C471 57.3 457 28.7 450 14.3L443 0L900 0L900 14.3C900 28.7 900 57.3 900 85.8C900 114.3 900 142.7 900 171.2C900 199.7 900 228.3 900 257C900 285.7 900 314.3 900 343C900 371.7 900 400.3 900 428.8C900 457.3 900 485.7 900 514.2C900 542.7 900 571.3 900 585.7L900 600Z" fill="#c7938d"></path><path d="M526 600L537.3 585.7C548.7 571.3 571.3 542.7 581 514.2C590.7 485.7 587.3 457.3 585.3 428.8C583.3 400.3 582.7 371.7 577.2 343C571.7 314.3 561.3 285.7 551 257C540.7 228.3 530.3 199.7 531.3 171.2C532.3 142.7 544.7 114.3 550.3 85.8C556 57.3 555 28.7 554.5 14.3L554 0L900 0L900 14.3C900 28.7 900 57.3 900 85.8C900 114.3 900 142.7 900 171.2C900 199.7 900 228.3 900 257C900 285.7 900 314.3 900 343C900 371.7 900 400.3 900 428.8C900 457.3 900 485.7 900 514.2C900 542.7 900 571.3 900 585.7L900 600Z" fill="#cfa79f"></path><path d="M672 600L674.8 585.7C677.7 571.3 683.3 542.7 675.2 514.2C667 485.7 645 457.3 642.8 428.8C640.7 400.3 658.3 371.7 667.3 343C676.3 314.3 676.7 285.7 665.8 257C655 228.3 633 199.7 625.5 171.2C618 142.7 625 114.3 632.5 85.8C640 57.3 648 28.7 652 14.3L656 0L900 0L900 14.3C900 28.7 900 57.3 900 85.8C900 114.3 900 142.7 900 171.2C900 199.7 900 228.3 900 257C900 285.7 900 314.3 900 343C900 371.7 900 400.3 900 428.8C900 457.3 900 485.7 900 514.2C900 542.7 900 571.3 900 585.7L900 600Z" fill="#d7bab2"></path><path d="M671 600L677.2 585.7C683.3 571.3 695.7 542.7 711.5 514.2C727.3 485.7 746.7 457.3 751.2 428.8C755.7 400.3 745.3 371.7 731.8 343C718.3 314.3 701.7 285.7 699.7 257C697.7 228.3 710.3 199.7 718 171.2C725.7 142.7 728.3 114.3 729.8 85.8C731.3 57.3 731.7 28.7 731.8 14.3L732 0L900 0L900 14.3C900 28.7 900 57.3 900 85.8C900 114.3 900 142.7 900 171.2C900 199.7 900 228.3 900 257C900 285.7 900 314.3 900 343C900 371.7 900 400.3 900 428.8C900 457.3 900 485.7 900 514.2C900 542.7 900 571.3 900 585.7L900 600Z" fill="#dfcdc7"></path><path d="M790 600L796.7 585.7C803.3 571.3 816.7 542.7 823.7 514.2C830.7 485.7 831.3 457.3 820.3 428.8C809.3 400.3 786.7 371.7 778.7 343C770.7 314.3 777.3 285.7 789.5 257C801.7 228.3 819.3 199.7 822.7 171.2C826 142.7 815 114.3 809.8 85.8C804.7 57.3 805.3 28.7 805.7 14.3L806 0L900 0L900 14.3C900 28.7 900 57.3 900 85.8C900 114.3 900 142.7 900 171.2C900 199.7 900 228.3 900 257C900 285.7 900 314.3 900 343C900 371.7 900 400.3 900 428.8C900 457.3 900 485.7 900 514.2C900 542.7 900 571.3 900 585.7L900 600Z" fill="#e7e0dd"></path></svg>